<svg xmlns="http://www.w3.org/2000/svg" width="24" height="24" viewBox="0 0 24 24">
  <path id="icon" d="M102,13H95a2,2,0,0,0-2,2v7a2,2,0,0,0,2,2h7a2,2,0,0,0,2-2V15A2,2,0,0,0,102,13Zm0,9H95V15h7Zm0,4H95a2,2,0,0,0-2,2v7a2,2,0,0,0,2,2h7a2,2,0,0,0,2-2V28A2,2,0,0,0,102,26Zm0,9H95V28h7Zm13-22h-7a2,2,0,0,0-2,2v7a2,2,0,0,0,2,2h7a2,2,0,0,0,2-2V15A2,2,0,0,0,115,13Zm0,9h-7V15h7Zm-1,8a1,1,0,0,1-1,1h-4a1,1,0,0,1,0-2h4A1,1,0,0,1,114,30Zm-2,4a1,1,0,0,1-1,1h-2a1,1,0,0,1,0-2h2A1,1,0,0,1,112,34Z" transform="translate(-93 -13)" fill="#c7c7c7"/>
</svg>
