<svg xmlns="http://www.w3.org/2000/svg" width="28" height="28" viewBox="0 0 28 28">
  <path id="symbol" d="M59.122,80.617l2.061-2.061-5.717-5.717,5.678-5.678-2.022-2.022-5.678,5.678-3.733-3.733L60.794,56H56.4L48,64.4v5.094Zm11.55-9.8-5.756,5.756-3.306-3.306-2.45-2.45-2.022,2.022,5.717,5.717L59.161,82.25,48,71.167V75.6L56.4,84h5.094L72.656,72.839Zm-7.856-9.411,5.717,5.717-5.717,5.717,2.1,2.1,5.756-5.756,3.655,3.656L63.167,84H67.6L76,75.6V70.35L64.917,59.422ZM67.6,56H62.428L51.344,67.083l2.1,2.1,5.639-5.639,3.228,3.228L64.8,69.183l2.061-2.061-5.717-5.717,3.772-3.656.467.467L76,68.678V64.4Z" transform="translate(-48 -56)" fill="#171717"/>
</svg>
