<svg xmlns="http://www.w3.org/2000/svg" width="48" height="48" viewBox="0 0 48 48">
  <path id="icon" d="M507-49H467a4,4,0,0,0-4,4V-5a4,4,0,0,0,4,4h40a4,4,0,0,0,4-4V-45A4,4,0,0,0,507-49Zm0,4v32.594l-5.67-6.616a6.018,6.018,0,0,0-4.324-2.09,6.1,6.1,0,0,0-4.475,1.753l-1.314,1.314-7.475-9.966a5.953,5.953,0,0,0-4.748-2.4h-.053a5.954,5.954,0,0,0-4.734,2.316L467-18.828V-45ZM467-5v-7.315l10.363-13.324a2.115,2.115,0,0,1,1.6-.771,1.988,1.988,0,0,1,1.584.8l10.24,13.655,4.576-4.575a2.022,2.022,0,0,1,1.493-.585,1.976,1.976,0,0,1,1.441.7L507-6.261V-5Zm30-24a6.006,6.006,0,0,0,6-6,6.006,6.006,0,0,0-6-6,6.006,6.006,0,0,0-6,6A6.006,6.006,0,0,0,497-29Zm0-8a2,2,0,0,1,2,2,2,2,0,0,1-2,2,2,2,0,0,1-2-2A2,2,0,0,1,497-37Z" transform="translate(-463 49)" fill="#fff" opacity="0.2"/>
</svg>
